<svg width="21" height="22" viewBox="0 0 21 22" fill="none" xmlns="http://www.w3.org/2000/svg">
<path d="M10.5885 0C5.14028 0 0.646484 3.99394 0.646484 9C0.646484 14.0061 5.14028 18 10.5885 18C10.9538 18 11.2448 17.9379 11.5827 17.9023V21.1426L13.1187 20.1387C15.2194 18.7652 19.9642 15.1944 20.5247 10.0078L20.5305 9.95508V9C20.5305 3.99394 16.0367 0 10.5885 0ZM10.5885 2C15.0823 2 18.5421 5.20606 18.5421 9V9.80859C18.1876 13.0029 15.6158 15.4975 13.5711 17.1309V15.6191L12.4138 15.8145C11.835 15.9115 11.1898 16 10.5885 16C6.09472 16 2.63489 12.7939 2.63489 9C2.63489 5.20606 6.09472 2 10.5885 2Z" fill="#141414"/>
</svg>
