<svg width="19" height="18" viewBox="0 0 19 18" fill="none" xmlns="http://www.w3.org/2000/svg">
<path d="M8.78125 0.875V3.75H10.2188V0.875H8.78125ZM3.39062 3.09863L2.37988 4.10938L4.42383 6.15332L5.43457 5.14258L3.39062 3.09863ZM15.6094 3.09863L13.5654 5.14258L14.5762 6.15332L16.6201 4.10938L15.6094 3.09863ZM7.79297 5.1875C6.76819 5.1875 5.88098 5.91467 5.68164 6.91699L3.88477 15.9688H2.3125V17.4062H16.6875V15.9688H15.1152L13.3184 6.91699C13.119 5.91467 12.229 5.1875 11.207 5.1875H7.79297ZM7.79297 6.625H11.207C11.5524 6.625 11.8359 6.86926 11.9033 7.20898L13.6553 15.9688H5.34473L7.09668 7.20898C7.16406 6.86926 7.44482 6.625 7.79297 6.625ZM0.15625 9.5V10.9375H3.03125V9.5H0.15625ZM15.9688 9.5V10.9375H18.8438V9.5H15.9688Z" fill="white"/>
</svg>
